# xmcd
#
# Track frame offsets: 
#        150
#        22919
#        41562
#        59635
#        77287
#        110032
#        136013
#        154965
#        173222
#        191236
#        204241
#        220335
#
# Disc length: 3275 seconds
#
# Revision: 0
# Processed by: cddbd v1.5.2PL0 Copyright (c) Steve Scherf et al.
# Submitted via: ExactAudioCopyFreeDBPlugin 1.0
#
DISCID=a30cc90c
DTITLE=Kings and Associates - Tales of a Rich Girl
DYEAR=2017
DGENRE=Blues
TTITLE0=Truth Be Told
TTITLE1=Tales of a Rich Girl
TTITLE2=Deadwood
TTITLE3=Nitty Gritty
TTITLE4=Peace X Peace
TTITLE5=Pabla's Grace
TTITLE6=Evergreen (Better Days)
TTITLE7=All That's Good
TTITLE8=Charlie B.
TTITLE9=God Bless Mamma
TTITLE10=Tales of a Rich Man (Live Acoustic)
TTITLE11=1000 Ways
EXTD=
EXTT0=
EXTT1=
EXTT2=
EXTT3=
EXTT4=
EXTT5=
EXTT6=
EXTT7=
EXTT8=
EXTT9=
EXTT10=
EXTT11=
PLAYORDER=
